<svg xmlns="http://www.w3.org/2000/svg" viewBox="0 0 24 24" width="24" height="24" fill="none">
  <!-- 调色板轮廓 -->
  <path d="M12 2C6.48 2 2 6.48 2 12C2 17.52 6.48 22 12 22C13.1 22 14 21.1 14 20C14 19.45 13.78 18.95 13.41 18.59C13.05 18.22 12.83 17.73 12.83 17.2C12.83 16.1 13.73 15.2 14.83 15.2H17C19.76 15.2 22 12.96 22 10.2C22 5.8 17.63 2 12 2Z" stroke="#ec4899" stroke-width="2" stroke-linecap="round" stroke-linejoin="round"/>
  <!-- 色点 -->
  <circle cx="7" cy="8" r="1.5" fill="#ec4899"/>
  <circle cx="12" cy="6" r="1.5" fill="#ec4899"/>
  <circle cx="17" cy="8" r="1.5" fill="#ec4899"/>
  <circle cx="7" cy="13" r="1.5" fill="#ec4899"/>
</svg>
